<svg xmlns="http://www.w3.org/2000/svg" viewBox="0 0 800 700">
  <defs>
    <linearGradient id="gal3" x1="0%" y1="0%" x2="100%" y2="100%">
      <stop offset="0%" style="stop-color:#ddd5d6;stop-opacity:1" />
      <stop offset="100%" style="stop-color:#b9bdbe;stop-opacity:1" />
    </linearGradient>
  </defs>
  <rect width="800" height="700" fill="url(#gal3)"/>
  <circle cx="150" cy="150" r="180" fill="rgba(255,255,255,0.2)"/>
  <!-- Tooth magnified -->
  <g transform="translate(400, 300)">
    <path d="M60 -90C45 -90 32 -80 28 -65C24 -80 11 -90-4 -90C-20 -90-38 -78-38 -52C-38 -26-28 -4-18 12L-4 50C-2 58 3 62 8 62C13 62 18 58 20 50L28 28L36 50C38 58 43 62 48 62C53 62 58 58 60 50L74 12C84 -4 94 -26 94 -52C94 -78 76 -90 60 -90Z" fill="rgba(52,52,52,0.18)" transform="scale(1.8)"/>
  </g>
  <text x="400" y="540" text-anchor="middle" font-family="Georgia, serif" font-size="20" fill="rgba(52,52,52,0.4)" letter-spacing="6">CONSULTÓRIO</text>
  <text x="400" y="565" text-anchor="middle" font-family="Arial, sans-serif" font-size="12" fill="rgba(52,52,52,0.3)" letter-spacing="3">Substituir pela foto real</text>
</svg>
