<svg xmlns="http://www.w3.org/2000/svg" viewBox="0 0 1920 1080">
  <defs>
    <linearGradient id="heroBg" x1="0%" y1="0%" x2="100%" y2="100%">
      <stop offset="0%" style="stop-color:#2c2c2c;stop-opacity:1" />
      <stop offset="40%" style="stop-color:#3a3a3a;stop-opacity:1" />
      <stop offset="100%" style="stop-color:#4a4a4a;stop-opacity:1" />
    </linearGradient>
    <pattern id="dotPattern" x="0" y="0" width="40" height="40" patternUnits="userSpaceOnUse">
      <circle cx="20" cy="20" r="1" fill="rgba(255,255,255,0.04)"/>
    </pattern>
  </defs>
  <rect width="1920" height="1080" fill="url(#heroBg)"/>
  <rect width="1920" height="1080" fill="url(#dotPattern)"/>
  <!-- Large decorative circles -->
  <circle cx="1500" cy="200" r="500" fill="rgba(255,255,255,0.03)"/>
  <circle cx="1700" cy="900" r="350" fill="rgba(255,255,255,0.025)"/>
  <circle cx="300" cy="850" r="280" fill="rgba(255,255,255,0.02)"/>
  <!-- Tooth silhouette - large background -->
  <g transform="translate(1450, 350) scale(3)" opacity="0.07">
    <path d="M80 0C60 0 45 12 40 30C35 12 20 0 0 0C-20 0-40 16-40 55C-40 94-28 130-14 155L0 210C3 225 10 232 18 232C26 232 33 225 36 210L40 175L44 210C47 225 54 232 62 232C70 232 77 225 80 210L94 155C108 130 120 94 120 55C120 16 100 0 80 0Z" fill="rgba(255,255,255,1)" transform="translate(-40,-116)"/>
  </g>
  <!-- Fine lines -->
  <line x1="0" y1="1" x2="1920" y2="1" stroke="rgba(255,255,255,0.06)" stroke-width="1"/>
  <line x1="0" y1="1079" x2="1920" y2="1079" stroke="rgba(255,255,255,0.06)" stroke-width="1"/>
</svg>
